<svg width="8" height="10" viewBox="0 0 8 10" fill="none" xmlns="http://www.w3.org/2000/svg">
<g clip-path="url(#clip0_3287_226944)">
<path d="M1.41154 9.33177C1.2764 9.33177 1.1913 9.28797 1.15626 9.20038C1.12373 9.11528 1.14125 9.02894 1.20882 8.94134C1.25387 8.88128 1.31644 8.80369 1.39653 8.70859C1.47662 8.61348 1.55921 8.51087 1.6443 8.40075C1.72939 8.29063 1.80322 8.18301 1.86579 8.0779C1.88081 8.05037 1.88456 8.02409 1.87705 7.99906C1.86954 7.97403 1.85077 7.95401 1.82074 7.939C1.44783 7.74128 1.12498 7.50227 0.852182 7.22196C0.579384 6.94165 0.369154 6.63132 0.221492 6.29094C0.0738308 5.94807 0 5.58893 0 5.21351C0 4.76803 0.102612 4.35257 0.307837 3.96715C0.515564 3.57923 0.802127 3.2376 1.16753 2.94228C1.53293 2.64696 1.95714 2.41671 2.44017 2.25153C2.9257 2.08384 3.44502 2 3.99812 2C4.55373 2 5.07305 2.08384 5.55608 2.25153C6.04161 2.41671 6.46707 2.64696 6.83247 2.94228C7.19787 3.2376 7.48318 3.57923 7.68841 3.96715C7.89614 4.35257 8 4.76803 8 5.21351C8 5.5664 7.93493 5.90302 7.80479 6.22337C7.67464 6.54372 7.48694 6.83779 7.24167 7.10558C6.99891 7.37338 6.70483 7.60613 6.35946 7.80385C6.01408 8.00156 5.62615 8.15423 5.19568 8.26185C4.76521 8.36947 4.30095 8.42327 3.80291 8.42327C3.77037 8.42327 3.73784 8.42202 3.7053 8.41952C3.67277 8.41952 3.64023 8.41702 3.6077 8.41201C3.58267 8.41201 3.55639 8.41702 3.52886 8.42703C3.50383 8.43704 3.4763 8.45206 3.44627 8.47208C3.2911 8.57719 3.11841 8.67981 2.9282 8.77992C2.7405 8.88253 2.54904 8.97513 2.35382 9.05772C2.16111 9.14281 1.98092 9.20913 1.81323 9.25669C1.64805 9.30674 1.51416 9.33177 1.41154 9.33177Z" fill="#252A2B"/>
</g>
<defs>
<clipPath id="clip0_3287_226944">
<rect width="8" height="9" fill="white" transform="translate(0 0.800293)"/>
</clipPath>
</defs>
</svg>
