<svg width="8" height="7" viewBox="0 0 8 7" fill="none" xmlns="http://www.w3.org/2000/svg">
<path d="M0.884186 0.678131H7.11581C7.7037 0.678131 8 0.955615 8 1.51999V5.48001C8 6.03968 7.7037 6.32187 7.11581 6.32187H0.884186C0.296296 6.32187 0 6.03968 0 5.48001V1.51999C0 0.955615 0.296296 0.678131 0.884186 0.678131ZM3.99765 4.72281L7.16755 2.12199C7.28042 2.02793 7.36978 1.81158 7.22869 1.61875C7.0923 1.42593 6.84303 1.42122 6.67842 1.5388L3.99765 3.3542L1.32158 1.5388C1.15697 1.42122 0.907701 1.42593 0.771311 1.61875C0.630218 1.81158 0.719577 2.02793 0.832451 2.12199L3.99765 4.72281Z" fill="#252A2B"/>
</svg>
