<svg width="8" height="9" viewBox="0 0 8 9" fill="none" xmlns="http://www.w3.org/2000/svg">
<path d="M5.33367 6.18487L6.02255 5.49599C6.11533 5.40436 6.23272 5.34164 6.36047 5.31543C6.48821 5.28923 6.62082 5.30067 6.74218 5.34838L7.58175 5.68359C7.7044 5.73337 7.80956 5.81835 7.884 5.9278C7.95843 6.03726 7.99879 6.1663 8 6.29866V7.83633C7.99929 7.92637 7.98036 8.01534 7.94436 8.09787C7.90835 8.1804 7.85602 8.2548 7.79051 8.31657C7.725 8.37834 7.64767 8.42622 7.56317 8.45732C7.47867 8.48842 7.38875 8.5021 7.29882 8.49753C1.41568 8.13157 0.228596 3.1495 0.00409558 1.24279C-0.00632588 1.14916 0.00319593 1.05438 0.0320346 0.964688C0.0608732 0.874999 0.108375 0.792433 0.171415 0.72242C0.234455 0.652408 0.311605 0.596537 0.397789 0.558482C0.483972 0.520427 0.577237 0.501052 0.671446 0.50163H2.15684C2.28939 0.502022 2.41879 0.542061 2.5284 0.616596C2.63801 0.69113 2.72282 0.796753 2.77191 0.919877L3.10712 1.75945C3.1564 1.88033 3.16898 2.01305 3.14327 2.14104C3.11757 2.26903 3.05472 2.3866 2.96258 2.47908L2.2737 3.16796C2.2737 3.16796 2.67042 5.85274 5.33367 6.18487Z" fill="#252A2B"/>
</svg>
