<svg width="8" height="12" viewBox="0 0 8 12" fill="none" xmlns="http://www.w3.org/2000/svg">
<path d="M3.99999 11.1438C3.27824 10.5282 2.60925 9.85329 2 9.12614C1.08571 8.03414 5.02224e-07 6.40786 5.02224e-07 4.85815C-0.00039601 4.0667 0.234005 3.29292 0.673538 2.63474C1.11307 1.97656 1.73798 1.46356 2.46918 1.16067C3.20037 0.857782 4.00499 0.778613 4.7812 0.933185C5.55741 1.08776 6.27031 1.46912 6.8297 2.02902C7.20213 2.39979 7.49732 2.84075 7.6982 3.32637C7.89908 3.81199 8.00165 4.33263 7.99998 4.85815C7.99998 6.40786 6.91427 8.03414 5.99999 9.12614C5.39073 9.85329 4.72174 10.5282 3.99999 11.1438ZM3.99999 3.14387C3.54533 3.14387 3.1093 3.32448 2.78781 3.64597C2.46632 3.96746 2.28571 4.4035 2.28571 4.85815C2.28571 5.31281 2.46632 5.74884 2.78781 6.07033C3.1093 6.39182 3.54533 6.57243 3.99999 6.57243C4.45465 6.57243 4.89068 6.39182 5.21217 6.07033C5.53366 5.74884 5.71427 5.31281 5.71427 4.85815C5.71427 4.4035 5.53366 3.96746 5.21217 3.64597C4.89068 3.32448 4.45465 3.14387 3.99999 3.14387Z" fill="#252A2B"/>
</svg>
