<svg width="24" height="24" viewBox="0 0 24 24" fill="none" xmlns="http://www.w3.org/2000/svg">
<g clip-path="url(#clip0)">
<path d="M11.9151 0C6.94249 0 5.4882 0.00512977 5.20552 0.0285802C4.18506 0.113405 3.55007 0.274076 2.85828 0.618504C2.32515 0.883237 1.90469 1.19011 1.48973 1.62027C0.734005 2.40476 0.27599 3.36989 0.110188 4.51713C0.0295773 5.07408 0.00612692 5.18766 0.00136357 8.03249C-0.000468495 8.98076 0.00136357 10.2288 0.00136357 11.9027C0.00136357 16.8713 0.00685975 18.3241 0.0306765 18.6062C0.113119 19.5992 0.268844 20.2239 0.598615 20.9073C1.22884 22.2154 2.43251 23.1974 3.85052 23.5638C4.34152 23.6902 4.88381 23.7598 5.57999 23.7928C5.87495 23.8056 8.88136 23.8148 11.8896 23.8148C14.8979 23.8148 17.9061 23.8111 18.1937 23.7965C18.9998 23.7585 19.4679 23.6957 19.9855 23.562C21.4127 23.1937 22.5943 22.2264 23.2374 20.9C23.5608 20.2331 23.7247 19.5845 23.7989 18.6434C23.815 18.4382 23.8218 15.1667 23.8218 11.8996C23.8218 8.63194 23.8145 5.36647 23.7984 5.16128C23.7233 4.20495 23.5593 3.56189 23.2255 2.8822C22.9516 2.3258 22.6475 1.91029 22.2059 1.48544C21.418 0.732824 20.4543 0.274809 19.306 0.109191C18.7496 0.0287634 18.6387 0.00494656 15.7917 0H11.9151Z" fill="url(#paint0_radial)"/>
<path d="M11.9151 0C6.94249 0 5.4882 0.00512977 5.20552 0.0285802C4.18506 0.113405 3.55007 0.274076 2.85828 0.618504C2.32515 0.883237 1.90469 1.19011 1.48973 1.62027C0.734005 2.40476 0.27599 3.36989 0.110188 4.51713C0.0295773 5.07408 0.00612692 5.18766 0.00136357 8.03249C-0.000468495 8.98076 0.00136357 10.2288 0.00136357 11.9027C0.00136357 16.8713 0.00685975 18.3241 0.0306765 18.6062C0.113119 19.5992 0.268844 20.2239 0.598615 20.9073C1.22884 22.2154 2.43251 23.1974 3.85052 23.5638C4.34152 23.6902 4.88381 23.7598 5.57999 23.7928C5.87495 23.8056 8.88136 23.8148 11.8896 23.8148C14.8979 23.8148 17.9061 23.8111 18.1937 23.7965C18.9998 23.7585 19.4679 23.6957 19.9855 23.562C21.4127 23.1937 22.5943 22.2264 23.2374 20.9C23.5608 20.2331 23.7247 19.5845 23.7989 18.6434C23.815 18.4382 23.8218 15.1667 23.8218 11.8996C23.8218 8.63194 23.8145 5.36647 23.7984 5.16128C23.7233 4.20495 23.5593 3.56189 23.2255 2.8822C22.9516 2.3258 22.6475 1.91029 22.2059 1.48544C21.418 0.732824 20.4543 0.274809 19.306 0.109191C18.7496 0.0287634 18.6387 0.00494656 15.7917 0H11.9151Z" fill="url(#paint1_radial)"/>
<path d="M11.9091 3.1145C9.52085 3.1145 9.22113 3.12494 8.28311 3.16763C7.34693 3.2105 6.70791 3.35872 6.14876 3.57618C5.57038 3.80079 5.07975 4.10125 4.59096 4.59023C4.1018 5.07902 3.80134 5.56965 3.576 6.14785C3.35798 6.70717 3.20959 7.34638 3.16745 8.2822C3.12549 9.22021 3.1145 9.52012 3.1145 11.9084C3.1145 14.2967 3.12513 14.5955 3.16763 15.5335C3.21069 16.4697 3.3589 17.1087 3.57618 17.6678C3.80098 18.2462 4.10143 18.7369 4.59041 19.2256C5.07902 19.7148 5.56965 20.016 6.14766 20.2406C6.70717 20.4581 7.34638 20.6063 8.28238 20.6492C9.22039 20.6918 9.51994 20.7023 11.908 20.7023C14.2965 20.7023 14.5953 20.6918 15.5333 20.6492C16.4695 20.6063 17.1092 20.4581 17.6688 20.2406C18.247 20.016 18.7369 19.7148 19.2255 19.2256C19.7146 18.7369 20.0151 18.2462 20.2404 17.668C20.4566 17.1087 20.605 16.4695 20.649 15.5337C20.6911 14.5957 20.7021 14.2967 20.7021 11.9084C20.7021 9.52012 20.6911 9.22039 20.649 8.28238C20.605 7.3462 20.4566 6.70717 20.2404 6.14803C20.0151 5.56965 19.7146 5.07902 19.2255 4.59023C18.7363 4.10107 18.2471 3.80061 17.6682 3.57618C17.1076 3.35872 16.4682 3.2105 15.532 3.16763C14.594 3.12494 14.2954 3.1145 11.9064 3.1145H11.9091ZM11.1202 4.69923C11.3544 4.69887 11.6156 4.69923 11.9091 4.69923C14.2571 4.69923 14.5354 4.70766 15.4626 4.7498C16.32 4.78901 16.7853 4.93227 17.0953 5.05264C17.5057 5.21203 17.7983 5.40256 18.1059 5.71035C18.4137 6.01814 18.6042 6.31126 18.764 6.72165C18.8843 7.03127 19.0278 7.49661 19.0668 8.35401C19.1089 9.28104 19.1181 9.55951 19.1181 11.9064C19.1181 14.2532 19.1089 14.5317 19.0668 15.4587C19.0276 16.3161 18.8843 16.7815 18.764 17.0911C18.6046 17.5015 18.4137 17.7937 18.1059 18.1013C17.7981 18.4091 17.5059 18.5996 17.0953 18.759C16.7857 18.8799 16.32 19.0228 15.4626 19.062C14.5356 19.1042 14.2571 19.1133 11.9091 19.1133C9.56097 19.1133 9.28269 19.1042 8.35566 19.062C7.49826 19.0225 7.03291 18.8792 6.72275 18.7588C6.31236 18.5994 6.01923 18.4089 5.71145 18.1011C5.40366 17.7933 5.21313 17.5009 5.05337 17.0904C4.93301 16.7808 4.78956 16.3154 4.75053 15.458C4.7084 14.531 4.69997 14.2525 4.69997 11.9042C4.69997 9.55584 4.7084 9.27884 4.75053 8.35181C4.78974 7.49441 4.93301 7.02907 5.05337 6.71908C5.21276 6.3087 5.40366 6.01557 5.71145 5.70778C6.01923 5.4 6.31236 5.20946 6.72275 5.04971C7.03273 4.92879 7.49826 4.78589 8.35566 4.7465C9.1669 4.70986 9.48128 4.69887 11.1202 4.69704V4.69923ZM16.6032 6.15939C16.0206 6.15939 15.548 6.63151 15.548 7.21429C15.548 7.79688 16.0206 8.26956 16.6032 8.26956C17.1858 8.26956 17.6585 7.79688 17.6585 7.21429C17.6585 6.63169 17.1858 6.15902 16.6032 6.15902V6.15939ZM11.9091 7.39236C9.41514 7.39236 7.3931 9.41441 7.3931 11.9084C7.3931 14.4024 9.41514 16.4235 11.9091 16.4235C14.4031 16.4235 16.4244 14.4024 16.4244 11.9084C16.4244 9.41441 14.4029 7.39236 11.9089 7.39236H11.9091ZM11.9091 8.9771C13.5279 8.9771 14.8404 10.2894 14.8404 11.9084C14.8404 13.5272 13.5279 14.8397 11.9091 14.8397C10.2901 14.8397 8.97783 13.5272 8.97783 11.9084C8.97783 10.2894 10.2901 8.9771 11.9091 8.9771Z" fill="white"/>
</g>
<defs>
<radialGradient id="paint0_radial" cx="0" cy="0" r="1" gradientUnits="userSpaceOnUse" gradientTransform="translate(6.3281 25.649) rotate(-90) scale(23.6022 21.9579)">
<stop stop-color="#FFDD55"/>
<stop offset="0.1" stop-color="#FFDD55"/>
<stop offset="0.5" stop-color="#FF543E"/>
<stop offset="1" stop-color="#C837AB"/>
</radialGradient>
<radialGradient id="paint1_radial" cx="0" cy="0" r="1" gradientUnits="userSpaceOnUse" gradientTransform="translate(-3.98964 1.71558) rotate(78.6776) scale(10.5504 43.5001)">
<stop stop-color="#3771C8"/>
<stop offset="0.128" stop-color="#3771C8"/>
<stop offset="1" stop-color="#6600FF" stop-opacity="0"/>
</radialGradient>
<clipPath id="clip0">
<rect width="24" height="23.8168" fill="white"/>
</clipPath>
</defs>
</svg>
