<svg width="29" height="21" viewBox="0 0 29 21" fill="none" xmlns="http://www.w3.org/2000/svg">
<path d="M27.9727 3.46406C27.6435 2.23405 26.6768 1.26744 25.4468 0.938186C23.2197 0.34082 14.285 0.34082 14.285 0.34082C14.285 0.34082 5.35042 0.34082 3.12323 0.938186C1.89323 1.26744 0.926623 2.23405 0.597366 3.46406C1.78814e-07 5.69124 0 10.3408 0 10.3408C0 10.3408 1.78814e-07 14.9904 0.597366 17.2176C0.926623 18.4476 1.89323 19.4142 3.12323 19.7434C5.35042 20.3408 14.285 20.3408 14.285 20.3408C14.285 20.3408 23.2197 20.3408 25.4468 19.7434C26.6768 19.4142 27.6435 18.4476 27.9727 17.2176C28.5701 14.9904 28.5701 10.3408 28.5701 10.3408C28.5701 10.3408 28.5677 5.69124 27.9727 3.46406Z" fill="#FF0000"/>
<path d="M11.4258 14.6257L18.8482 10.3407L11.4258 6.05566V14.6257Z" fill="white"/>
</svg>
